<svg width="200" height="42" viewBox="0 0 200 42" fill="none" xmlns="http://www.w3.org/2000/svg">
<path d="M21.5248 42C33.4127 42 43.0498 32.598 43.0498 21C43.0498 9.40202 33.4127 0 21.5248 0C9.63688 0 -0.000196003 9.40202 -0.000196003 21C-0.000196003 32.598 9.63688 42 21.5248 42Z" fill="url(#paint0_linear_125_572)"/>
<path d="M30.4498 11.5505V30.4505H11.5498L30.4498 11.5505Z" fill="white"/>
<path d="M11.5499 13.6501V11.5501H13.6499L11.5499 13.6501Z" fill="white"/>
<path d="M13.6497 25.2002L13.6497 13.6502L25.1997 13.6502L13.6497 25.2002Z" fill="white"/>
<path d="M56.7001 18.5005L66.042 6.90626H56.8837V5.24995H68.1837V6.69922L59.005 18.2934H68.1837V19.9498H56.6992L56.7001 18.5005ZM76.8525 5.24995H78.4045L84.3179 19.9498H82.3597L80.6481 15.6433H74.568L72.8751 19.9498H70.9169L76.8525 5.24995ZM80.2384 14.1941L77.6276 7.40316L74.9352 14.1941H80.2384ZM88.0505 19.9498V5.24995H89.8863V18.2934H97.9636V19.9498H88.0505ZM111.589 18.2934V19.9498H101.757V5.24995H111.405V6.90626H103.593V11.6682H110.385V13.221H103.593V18.2934H111.589ZM115.893 19.9498V5.24995H121.93C122.541 5.24389 123.145 5.38259 123.695 5.65502C124.223 5.91711 124.694 6.28306 125.082 6.73163C125.468 7.17834 125.775 7.68972 125.989 8.24302C126.204 8.78691 126.315 9.36737 126.316 9.95335C126.317 10.5537 126.213 11.1495 126.01 11.7132C125.813 12.2661 125.519 12.7782 125.143 13.2246C124.769 13.6652 124.311 14.0238 123.797 14.2787C123.253 14.5455 122.656 14.6802 122.053 14.672H117.728V19.9498H115.893ZM117.728 13.0139H121.951C122.308 13.0194 122.661 12.9378 122.981 12.7758C123.287 12.6165 123.556 12.3902 123.766 12.1133C123.99 11.817 124.163 11.4838 124.276 11.1281C124.4 10.7474 124.462 10.3488 124.459 9.94794C124.463 9.5376 124.39 9.1303 124.245 8.74711C124.112 8.39134 123.919 8.06198 123.674 7.77403C123.443 7.50301 123.158 7.28435 122.838 7.13221C122.522 6.98124 122.177 6.90345 121.828 6.90446H117.728V13.0139ZM130.395 19.9498V5.24995H132.231V19.9498H130.395ZM137.494 19.9498V5.27065H139.33V13.3866L146.794 5.24995H148.773L142.96 11.7312L149.099 19.9498H147.1L141.84 12.8069L139.329 15.457V19.9498H137.494Z" fill="url(#paint1_linear_125_572)"/>
<path d="M59.1642 36.0053C58.4792 36.0053 57.8736 35.8812 57.3475 35.6329C56.8313 35.3846 56.4242 35.0381 56.1264 34.5933C55.8286 34.1484 55.6698 33.6519 55.6499 33.1036H56.7518C56.8015 33.6312 57.0249 34.0967 57.4219 34.5001C57.819 34.8933 58.3998 35.0898 59.1642 35.0898C59.8691 35.0898 60.425 34.9036 60.832 34.5312C61.249 34.1484 61.4574 33.6674 61.4574 33.0881C61.4574 32.6226 61.3433 32.2501 61.115 31.9708C60.8866 31.6812 60.6037 31.4691 60.2662 31.3346C59.9286 31.1898 59.462 31.0346 58.8664 30.8691C58.1715 30.6726 57.6205 30.4812 57.2135 30.295C56.8064 30.1088 56.459 29.8191 56.1711 29.426C55.8832 29.0329 55.7392 28.5001 55.7392 27.8277C55.7392 27.2691 55.8782 26.7726 56.1562 26.3381C56.4342 25.8933 56.8263 25.5467 57.3326 25.2984C57.8389 25.0501 58.4197 24.926 59.0749 24.926C60.0378 24.926 60.8122 25.1743 61.3979 25.6708C61.9935 26.157 62.336 26.7881 62.4254 27.5639H61.2936C61.2242 27.1191 60.9909 26.726 60.5938 26.3846C60.1967 26.0329 59.6606 25.857 58.9855 25.857C58.3601 25.857 57.8389 26.0329 57.4219 26.3846C57.005 26.726 56.7965 27.1967 56.7965 27.7967C56.7965 28.2519 56.9107 28.6191 57.139 28.8984C57.3673 29.1777 57.6503 29.3898 57.9878 29.5346C58.3353 29.6795 58.8019 29.8346 59.3876 30.0001C60.0626 30.1967 60.6087 30.3933 61.0256 30.5898C61.4426 30.776 61.795 31.0657 62.0829 31.4588C62.3708 31.8519 62.5147 32.3795 62.5147 33.0415C62.5147 33.5484 62.3857 34.0295 62.1275 34.4846C61.8694 34.9398 61.4872 35.307 60.9809 35.5864C60.4746 35.8657 59.8691 36.0053 59.1642 36.0053Z" fill="#0F85D8"/>
<path d="M68.088 36.0208C67.3235 36.0208 66.6336 35.845 66.0181 35.4933C65.4125 35.1312 64.931 34.6243 64.5737 33.9726C64.2262 33.3105 64.0525 32.5398 64.0525 31.6605C64.0525 30.7812 64.2312 30.0157 64.5885 29.3639C64.9459 28.7019 65.4324 28.195 66.0479 27.8432C66.6634 27.4812 67.3533 27.3001 68.1177 27.3001C68.8822 27.3001 69.5721 27.4812 70.1876 27.8432C70.813 28.195 71.2995 28.7019 71.6469 29.3639C72.0043 30.0157 72.183 30.7812 72.183 31.6605C72.183 32.5295 72.0043 33.295 71.6469 33.957C71.2896 34.6191 70.7981 35.1312 70.1727 35.4933C69.5473 35.845 68.8524 36.0208 68.088 36.0208ZM68.088 35.0743C68.624 35.0743 69.1204 34.9501 69.5771 34.7019C70.0337 34.4433 70.4011 34.0605 70.679 33.5536C70.9669 33.0364 71.1109 32.4053 71.1109 31.6605C71.1109 30.9157 70.9719 30.2898 70.6939 29.7829C70.4159 29.2657 70.0486 28.8829 69.592 28.6346C69.1353 28.376 68.6389 28.2467 68.1029 28.2467C67.5668 28.2467 67.0704 28.376 66.6137 28.6346C66.1571 28.8829 65.7898 29.2657 65.5118 29.7829C65.2438 30.2898 65.1097 30.9157 65.1097 31.6605C65.1097 32.4053 65.2438 33.0364 65.5118 33.5536C65.7898 34.0605 66.1521 34.4433 66.5988 34.7019C67.0555 34.9501 67.5519 35.0743 68.088 35.0743Z" fill="#0F85D8"/>
<path d="M77.2848 28.3398H75.3936V35.8967H74.3512V28.3398H73.2195V27.4243H74.3512V26.8346C74.3512 25.9139 74.5746 25.2364 75.0213 24.8019C75.478 24.3674 76.2126 24.1501 77.2252 24.1501V25.0812C76.5501 25.0812 76.0736 25.2157 75.7956 25.4846C75.5276 25.7536 75.3936 26.2036 75.3936 26.8346V27.4243H77.2848V28.3398Z" fill="#0F85D8"/>
<path d="M80.2808 28.3398V33.6001C80.2808 34.1174 80.3751 34.4743 80.5637 34.6708C80.7523 34.8674 81.0849 34.9657 81.5614 34.9657H82.5145V35.8967H81.3976C80.663 35.8967 80.117 35.7208 79.7596 35.3691C79.4022 35.007 79.2235 34.4174 79.2235 33.6001V28.3398H78.0918V27.4243H79.2235V25.2984H80.2808V27.4243H82.5145V28.3398H80.2808Z" fill="#0F85D8"/>
<path d="M94.9552 27.4243L92.4088 35.8967H91.3664L89.1179 28.7898L86.8693 35.8967H85.812L83.2656 27.4243H84.3229L86.3481 34.795L88.6265 27.4243H89.6688L91.9174 34.8105L93.9277 27.4243H94.9552Z" fill="#0F85D8"/>
<path d="M95.8997 31.645C95.8997 30.776 96.0635 30.0157 96.3911 29.3639C96.7287 28.7019 97.1903 28.195 97.776 27.8432C98.3717 27.4812 99.0418 27.3001 99.7863 27.3001C100.561 27.3001 101.226 27.4864 101.782 27.8588C102.348 28.2312 102.755 28.707 103.003 29.2864V27.4243H104.045V35.8967H103.003V34.0191C102.745 34.5984 102.333 35.0795 101.767 35.4622C101.211 35.8346 100.546 36.0208 99.7714 36.0208C99.0368 36.0208 98.3717 35.8398 97.776 35.4777C97.1903 35.1157 96.7287 34.6036 96.3911 33.9415C96.0635 33.2795 95.8997 32.5139 95.8997 31.645ZM103.003 31.6605C103.003 30.9777 102.869 30.3777 102.601 29.8605C102.333 29.3433 101.965 28.945 101.499 28.6657C101.042 28.3864 100.536 28.2467 99.9799 28.2467C99.4041 28.2467 98.8879 28.3812 98.4312 28.6501C97.9746 28.9191 97.6122 29.3122 97.3442 29.8295C97.0861 30.3364 96.957 30.9415 96.957 31.645C96.957 32.3381 97.0861 32.9484 97.3442 33.476C97.6122 33.9933 97.9746 34.3915 98.4312 34.6708C98.8879 34.9398 99.4041 35.0743 99.9799 35.0743C100.536 35.0743 101.042 34.9346 101.499 34.6553C101.965 34.376 102.333 33.9777 102.601 33.4605C102.869 32.9433 103.003 32.3433 103.003 31.6605Z" fill="#0F85D8"/>
<path d="M107.467 28.9295C107.696 28.4019 108.043 27.9933 108.51 27.7036C108.986 27.4139 109.567 27.2691 110.252 27.2691V28.4019H109.969C109.214 28.4019 108.609 28.6139 108.152 29.0381C107.696 29.4622 107.467 30.1708 107.467 31.1639V35.8967H106.425V27.4243H107.467V28.9295Z" fill="#0F85D8"/>
<path d="M119.176 31.226C119.176 31.5984 119.166 31.8829 119.146 32.0795H112.401C112.431 32.7208 112.579 33.2691 112.847 33.7243C113.116 34.1795 113.468 34.526 113.905 34.7639C114.342 34.9915 114.818 35.1053 115.334 35.1053C116.009 35.1053 116.575 34.9346 117.032 34.5933C117.498 34.2519 117.806 33.7915 117.955 33.2122H119.057C118.859 34.0398 118.432 34.7174 117.776 35.245C117.131 35.7622 116.317 36.0208 115.334 36.0208C114.57 36.0208 113.885 35.845 113.279 35.4933C112.674 35.1312 112.197 34.6243 111.85 33.9726C111.512 33.3105 111.343 32.5398 111.343 31.6605C111.343 30.7812 111.512 30.0105 111.85 29.3484C112.187 28.6864 112.659 28.1795 113.264 27.8277C113.87 27.476 114.56 27.3001 115.334 27.3001C116.109 27.3001 116.784 27.476 117.359 27.8277C117.945 28.1795 118.392 28.6553 118.7 29.2553C119.017 29.845 119.176 30.5019 119.176 31.226ZM118.119 31.195C118.129 30.5639 118.005 30.026 117.747 29.5812C117.498 29.1364 117.156 28.8001 116.719 28.5726C116.282 28.345 115.806 28.2312 115.29 28.2312C114.515 28.2312 113.855 28.4898 113.309 29.007C112.763 29.5243 112.46 30.2536 112.401 31.195H118.119Z" fill="#0F85D8"/>
<path d="M128.252 25.0501C129.404 25.0501 130.391 25.2674 131.215 25.7019C132.039 26.1364 132.67 26.7622 133.107 27.5795C133.543 28.3967 133.762 29.3691 133.762 30.4967C133.762 31.6139 133.543 32.5812 133.107 33.3984C132.67 34.2053 132.039 34.826 131.215 35.2605C130.391 35.6846 129.404 35.8967 128.252 35.8967H125.17V25.0501H128.252ZM128.252 34.9967C129.702 34.9967 130.803 34.6036 131.558 33.8174C132.322 33.0208 132.705 31.9139 132.705 30.4967C132.705 29.0691 132.322 27.957 131.558 27.1605C130.803 26.3536 129.702 25.9501 128.252 25.9501H126.212V34.9967H128.252Z" fill="#0F85D8"/>
<path d="M143.04 31.226C143.04 31.5984 143.03 31.8829 143.01 32.0795H136.264C136.294 32.7208 136.443 33.2691 136.711 33.7243C136.979 34.1795 137.332 34.526 137.768 34.7639C138.205 34.9915 138.682 35.1053 139.198 35.1053C139.873 35.1053 140.439 34.9346 140.896 34.5933C141.362 34.2519 141.67 33.7915 141.819 33.2122H142.921C142.722 34.0398 142.295 34.7174 141.64 35.245C140.995 35.7622 140.181 36.0208 139.198 36.0208C138.434 36.0208 137.749 35.845 137.143 35.4933C136.537 35.1312 136.061 34.6243 135.713 33.9726C135.376 33.3105 135.207 32.5398 135.207 31.6605C135.207 30.7812 135.376 30.0105 135.713 29.3484C136.051 28.6864 136.522 28.1795 137.128 27.8277C137.734 27.476 138.424 27.3001 139.198 27.3001C139.972 27.3001 140.647 27.476 141.223 27.8277C141.809 28.1795 142.256 28.6553 142.563 29.2553C142.881 29.845 143.04 30.5019 143.04 31.226ZM141.983 31.195C141.993 30.5639 141.868 30.026 141.61 29.5812C141.362 29.1364 141.02 28.8001 140.583 28.5726C140.146 28.345 139.669 28.2312 139.153 28.2312C138.379 28.2312 137.719 28.4898 137.173 29.007C136.627 29.5243 136.324 30.2536 136.264 31.195H141.983Z" fill="#0F85D8"/>
<path d="M147.836 34.8415L150.576 27.4243H151.678L148.417 35.8967H147.24L143.979 27.4243H145.096L147.836 34.8415Z" fill="#0F85D8"/>
<path d="M160.447 31.226C160.447 31.5984 160.437 31.8829 160.417 32.0795H153.671C153.701 32.7208 153.85 33.2691 154.118 33.7243C154.386 34.1795 154.739 34.526 155.175 34.7639C155.612 34.9915 156.089 35.1053 156.605 35.1053C157.28 35.1053 157.846 34.9346 158.302 34.5933C158.769 34.2519 159.077 33.7915 159.226 33.2122H160.328C160.129 34.0398 159.702 34.7174 159.047 35.245C158.402 35.7622 157.588 36.0208 156.605 36.0208C155.84 36.0208 155.155 35.845 154.55 35.4933C153.944 35.1312 153.468 34.6243 153.12 33.9726C152.783 33.3105 152.614 32.5398 152.614 31.6605C152.614 30.7812 152.783 30.0105 153.12 29.3484C153.458 28.6864 153.929 28.1795 154.535 27.8277C155.141 27.476 155.831 27.3001 156.605 27.3001C157.379 27.3001 158.054 27.476 158.63 27.8277C159.216 28.1795 159.663 28.6553 159.97 29.2553C160.288 29.845 160.447 30.5019 160.447 31.226ZM159.39 31.195C159.399 30.5639 159.275 30.026 159.017 29.5812C158.769 29.1364 158.427 28.8001 157.99 28.5726C157.553 28.345 157.076 28.2312 156.56 28.2312C155.786 28.2312 155.126 28.4898 154.58 29.007C154.034 29.5243 153.731 30.2536 153.671 31.195H159.39Z" fill="#0F85D8"/>
<path d="M163.396 24.4139V35.8967H162.354V24.4139H163.396Z" fill="#0F85D8"/>
<path d="M169.316 36.0208C168.551 36.0208 167.861 35.845 167.246 35.4933C166.64 35.1312 166.159 34.6243 165.801 33.9726C165.454 33.3105 165.28 32.5398 165.28 31.6605C165.28 30.7812 165.459 30.0157 165.816 29.3639C166.174 28.7019 166.66 28.195 167.276 27.8432C167.891 27.4812 168.581 27.3001 169.346 27.3001C170.11 27.3001 170.8 27.4812 171.415 27.8432C172.041 28.195 172.527 28.7019 172.875 29.3639C173.232 30.0157 173.411 30.7812 173.411 31.6605C173.411 32.5295 173.232 33.295 172.875 33.957C172.517 34.6191 172.026 35.1312 171.4 35.4933C170.775 35.845 170.08 36.0208 169.316 36.0208ZM169.316 35.0743C169.852 35.0743 170.348 34.9501 170.805 34.7019C171.262 34.4433 171.629 34.0605 171.907 33.5536C172.195 33.0364 172.339 32.4053 172.339 31.6605C172.339 30.9157 172.2 30.2898 171.922 29.7829C171.644 29.2657 171.276 28.8829 170.82 28.6346C170.363 28.376 169.867 28.2467 169.331 28.2467C168.795 28.2467 168.298 28.376 167.842 28.6346C167.385 28.8829 167.018 29.2657 166.74 29.7829C166.472 30.2898 166.338 30.9157 166.338 31.6605C166.338 32.4053 166.472 33.0364 166.74 33.5536C167.018 34.0605 167.38 34.4433 167.827 34.7019C168.283 34.9501 168.78 35.0743 169.316 35.0743Z" fill="#0F85D8"/>
<path d="M176.338 29.2864C176.597 28.7174 177.004 28.2467 177.559 27.8743C178.125 27.4915 178.795 27.3001 179.57 27.3001C180.304 27.3001 180.965 27.4812 181.55 27.8432C182.146 28.195 182.608 28.7019 182.935 29.3639C183.273 30.0157 183.441 30.776 183.441 31.645C183.441 32.5139 183.273 33.2795 182.935 33.9415C182.608 34.6036 182.146 35.1157 181.55 35.4777C180.965 35.8398 180.304 36.0208 179.57 36.0208C178.805 36.0208 178.14 35.8346 177.574 35.4622C177.009 35.0795 176.597 34.6036 176.338 34.0346V39.9001H175.311V27.4243H176.338V29.2864ZM182.384 31.645C182.384 30.9415 182.25 30.3364 181.982 29.8295C181.724 29.3122 181.367 28.9191 180.91 28.6501C180.453 28.3812 179.937 28.2467 179.361 28.2467C178.805 28.2467 178.294 28.3864 177.828 28.6657C177.371 28.945 177.009 29.3433 176.74 29.8605C176.472 30.3777 176.338 30.9777 176.338 31.6605C176.338 32.3433 176.472 32.9433 176.74 33.4605C177.009 33.9777 177.371 34.376 177.828 34.6553C178.294 34.9346 178.805 35.0743 179.361 35.0743C179.937 35.0743 180.453 34.9398 180.91 34.6708C181.367 34.3915 181.724 33.9933 181.982 33.476C182.25 32.9484 182.384 32.3381 182.384 31.645Z" fill="#0F85D8"/>
<path d="M192.716 31.226C192.716 31.5984 192.706 31.8829 192.686 32.0795H185.94C185.97 32.7208 186.119 33.2691 186.387 33.7243C186.655 34.1795 187.008 34.526 187.444 34.7639C187.881 34.9915 188.358 35.1053 188.874 35.1053C189.549 35.1053 190.115 34.9346 190.571 34.5933C191.038 34.2519 191.346 33.7915 191.495 33.2122H192.597C192.398 34.0398 191.971 34.7174 191.316 35.245C190.671 35.7622 189.857 36.0208 188.874 36.0208C188.109 36.0208 187.424 35.845 186.819 35.4933C186.213 35.1312 185.737 34.6243 185.389 33.9726C185.052 33.3105 184.883 32.5398 184.883 31.6605C184.883 30.7812 185.052 30.0105 185.389 29.3484C185.727 28.6864 186.198 28.1795 186.804 27.8277C187.41 27.476 188.1 27.3001 188.874 27.3001C189.648 27.3001 190.323 27.476 190.899 27.8277C191.485 28.1795 191.932 28.6553 192.239 29.2553C192.557 29.845 192.716 30.5019 192.716 31.226ZM191.659 31.195C191.668 30.5639 191.544 30.026 191.286 29.5812C191.038 29.1364 190.696 28.8001 190.259 28.5726C189.822 28.345 189.345 28.2312 188.829 28.2312C188.055 28.2312 187.395 28.4898 186.849 29.007C186.303 29.5243 186 30.2536 185.94 31.195H191.659Z" fill="#0F85D8"/>
<path d="M195.665 28.9295C195.894 28.4019 196.241 27.9933 196.708 27.7036C197.184 27.4139 197.765 27.2691 198.45 27.2691V28.4019H198.167C197.412 28.4019 196.807 28.6139 196.35 29.0381C195.894 29.4622 195.665 30.1708 195.665 31.1639V35.8967H194.623V27.4243H195.665V28.9295Z" fill="#0F85D8"/>
<defs>
<linearGradient id="paint0_linear_125_572" x1="43.0498" y1="21" x2="-0.000198364" y2="21" gradientUnits="userSpaceOnUse">
<stop stop-color="#0FB3EE"/>
<stop offset="1" stop-color="#0E5DC4"/>
</linearGradient>
<linearGradient id="paint1_linear_125_572" x1="269.681" y1="12.5998" x2="-11.8616" y2="12.5998" gradientUnits="userSpaceOnUse">
<stop stop-color="#0FB3EE"/>
<stop offset="1" stop-color="#0E5DC4"/>
</linearGradient>
</defs>
</svg>
